<mxfile host="app.diagrams.net" modified="2023-12-31T06:51:47.664Z" agent="Mozilla/5.0 (Windows NT 10.0; Win64; x64) AppleWebKit/537.36 (KHTML, like Gecko) Chrome/120.0.0.0 Safari/537.36" etag="iFvrHxBHddN9Lw3L37Yc" version="22.1.16" type="device">
  <diagram name="PÃ¡gina-1" id="etjKTagHLl86I3s5QUqp">
    <mxGraphModel dx="3871" dy="1404" grid="1" gridSize="10" guides="1" tooltips="1" connect="1" arrows="1" fold="1" page="1" pageScale="1" pageWidth="827" pageHeight="1169" math="0" shadow="0">
      <root>
        <mxCell id="0" />
        <mxCell id="1" parent="0" />
        <mxCell id="gPBveePWETglcoKWdT---1" value="API" style="sketch=0;points=[[0,0,0],[0.25,0,0],[0.5,0,0],[0.75,0,0],[1,0,0],[0,1,0],[0.25,1,0],[0.5,1,0],[0.75,1,0],[1,1,0],[0,0.25,0],[0,0.5,0],[0,0.75,0],[1,0.25,0],[1,0.5,0],[1,0.75,0]];outlineConnect=0;fontColor=#232F3E;fillColor=#C925D1;strokeColor=#ffffff;dashed=0;verticalLabelPosition=bottom;verticalAlign=top;align=center;html=1;fontSize=12;fontStyle=0;aspect=fixed;shape=mxgraph.aws4.resourceIcon;resIcon=mxgraph.aws4.cloud_control_api;" vertex="1" parent="1">
          <mxGeometry x="-200" y="240" width="78" height="78" as="geometry" />
        </mxCell>
        <mxCell id="gPBveePWETglcoKWdT---2" value="" style="sketch=0;points=[[0,0,0],[0.25,0,0],[0.5,0,0],[0.75,0,0],[1,0,0],[0,1,0],[0.25,1,0],[0.5,1,0],[0.75,1,0],[1,1,0],[0,0.25,0],[0,0.5,0],[0,0.75,0],[1,0.25,0],[1,0.5,0],[1,0.75,0]];outlineConnect=0;fontColor=#232F3E;fillColor=#ED7100;strokeColor=#ffffff;dashed=0;verticalLabelPosition=bottom;verticalAlign=top;align=center;html=1;fontSize=12;fontStyle=0;aspect=fixed;shape=mxgraph.aws4.resourceIcon;resIcon=mxgraph.aws4.lambda;" vertex="1" parent="1">
          <mxGeometry x="250" y="375" width="78" height="78" as="geometry" />
        </mxCell>
        <mxCell id="gPBveePWETglcoKWdT---3" value="Api keys and user secrets" style="sketch=0;points=[[0,0,0],[0.25,0,0],[0.5,0,0],[0.75,0,0],[1,0,0],[0,1,0],[0.25,1,0],[0.5,1,0],[0.75,1,0],[1,1,0],[0,0.25,0],[0,0.5,0],[0,0.75,0],[1,0.25,0],[1,0.5,0],[1,0.75,0]];outlineConnect=0;fontColor=#232F3E;fillColor=#DD344C;strokeColor=#ffffff;dashed=0;verticalLabelPosition=bottom;verticalAlign=top;align=center;html=1;fontSize=12;fontStyle=0;aspect=fixed;shape=mxgraph.aws4.resourceIcon;resIcon=mxgraph.aws4.secrets_manager;" vertex="1" parent="1">
          <mxGeometry x="250" y="525" width="78" height="78" as="geometry" />
        </mxCell>
        <mxCell id="gPBveePWETglcoKWdT---92" value="" style="edgeStyle=orthogonalEdgeStyle;rounded=0;orthogonalLoop=1;jettySize=auto;html=1;" edge="1" parent="1" source="gPBveePWETglcoKWdT---9" target="gPBveePWETglcoKWdT---2">
          <mxGeometry relative="1" as="geometry" />
        </mxCell>
        <mxCell id="gPBveePWETglcoKWdT---9" value="" style="sketch=0;outlineConnect=0;fontColor=#232F3E;gradientColor=none;fillColor=#E7157B;strokeColor=none;dashed=0;verticalLabelPosition=bottom;verticalAlign=top;align=center;html=1;fontSize=12;fontStyle=0;aspect=fixed;pointerEvents=1;shape=mxgraph.aws4.eventbridge_scheduler;" vertex="1" parent="1">
          <mxGeometry x="110" y="375" width="78" height="78" as="geometry" />
        </mxCell>
        <mxCell id="gPBveePWETglcoKWdT---11" value="Cost Alarm" style="sketch=0;outlineConnect=0;fontColor=#232F3E;gradientColor=none;fillColor=#E7157B;strokeColor=none;dashed=0;verticalLabelPosition=bottom;verticalAlign=top;align=center;html=1;fontSize=12;fontStyle=0;aspect=fixed;pointerEvents=1;shape=mxgraph.aws4.alarm;" vertex="1" parent="1">
          <mxGeometry x="-22" y="525" width="78" height="78" as="geometry" />
        </mxCell>
        <mxCell id="gPBveePWETglcoKWdT---23" style="edgeStyle=orthogonalEdgeStyle;rounded=0;orthogonalLoop=1;jettySize=auto;html=1;" edge="1" parent="1" source="gPBveePWETglcoKWdT---3">
          <mxGeometry relative="1" as="geometry">
            <mxPoint x="289" y="470" as="targetPoint" />
          </mxGeometry>
        </mxCell>
        <mxCell id="gPBveePWETglcoKWdT---24" style="edgeStyle=orthogonalEdgeStyle;rounded=0;orthogonalLoop=1;jettySize=auto;html=1;entryX=0.75;entryY=0;entryDx=0;entryDy=0;entryPerimeter=0;" edge="1" parent="1" source="gPBveePWETglcoKWdT---5" target="gPBveePWETglcoKWdT---2">
          <mxGeometry relative="1" as="geometry" />
        </mxCell>
        <mxCell id="gPBveePWETglcoKWdT---33" style="edgeStyle=orthogonalEdgeStyle;rounded=0;orthogonalLoop=1;jettySize=auto;html=1;entryX=0;entryY=0.5;entryDx=0;entryDy=0;entryPerimeter=0;" edge="1" parent="1" source="gPBveePWETglcoKWdT---9" target="gPBveePWETglcoKWdT---2">
          <mxGeometry relative="1" as="geometry" />
        </mxCell>
        <mxCell id="gPBveePWETglcoKWdT---40" style="edgeStyle=orthogonalEdgeStyle;rounded=0;orthogonalLoop=1;jettySize=auto;html=1;" edge="1" parent="1" source="gPBveePWETglcoKWdT---39" target="gPBveePWETglcoKWdT---9">
          <mxGeometry relative="1" as="geometry" />
        </mxCell>
        <mxCell id="gPBveePWETglcoKWdT---39" value="Disable schedule" style="sketch=0;points=[[0,0,0],[0.25,0,0],[0.5,0,0],[0.75,0,0],[1,0,0],[0,1,0],[0.25,1,0],[0.5,1,0],[0.75,1,0],[1,1,0],[0,0.25,0],[0,0.5,0],[0,0.75,0],[1,0.25,0],[1,0.5,0],[1,0.75,0]];outlineConnect=0;fontColor=#232F3E;fillColor=#ED7100;strokeColor=#ffffff;dashed=0;verticalLabelPosition=bottom;verticalAlign=top;align=center;html=1;fontSize=12;fontStyle=0;aspect=fixed;shape=mxgraph.aws4.resourceIcon;resIcon=mxgraph.aws4.lambda;" vertex="1" parent="1">
          <mxGeometry x="110" y="525" width="78" height="78" as="geometry" />
        </mxCell>
        <mxCell id="gPBveePWETglcoKWdT---41" style="edgeStyle=orthogonalEdgeStyle;rounded=0;orthogonalLoop=1;jettySize=auto;html=1;entryX=0;entryY=0.5;entryDx=0;entryDy=0;entryPerimeter=0;" edge="1" parent="1" source="gPBveePWETglcoKWdT---11" target="gPBveePWETglcoKWdT---39">
          <mxGeometry relative="1" as="geometry" />
        </mxCell>
        <mxCell id="gPBveePWETglcoKWdT---46" value="AWS Cloud us-east-1" style="points=[[0,0],[0.25,0],[0.5,0],[0.75,0],[1,0],[1,0.25],[1,0.5],[1,0.75],[1,1],[0.75,1],[0.5,1],[0.25,1],[0,1],[0,0.75],[0,0.5],[0,0.25]];outlineConnect=0;gradientColor=none;html=1;whiteSpace=wrap;fontSize=12;fontStyle=0;container=1;pointerEvents=0;collapsible=0;recursiveResize=0;shape=mxgraph.aws4.group;grIcon=mxgraph.aws4.group_aws_cloud_alt;strokeColor=#232F3E;fillColor=none;verticalAlign=top;align=left;spacingLeft=30;fontColor=#232F3E;dashed=0;" vertex="1" parent="1">
          <mxGeometry x="-50" y="180" width="1330" height="460" as="geometry" />
        </mxCell>
        <mxCell id="gPBveePWETglcoKWdT---5" value="" style="sketch=0;points=[[0,0,0],[0.25,0,0],[0.5,0,0],[0.75,0,0],[1,0,0],[0,1,0],[0.25,1,0],[0.5,1,0],[0.75,1,0],[1,1,0],[0,0.25,0],[0,0.5,0],[0,0.75,0],[1,0.25,0],[1,0.5,0],[1,0.75,0]];outlineConnect=0;fontColor=#232F3E;fillColor=#8C4FFF;strokeColor=#ffffff;dashed=0;verticalLabelPosition=bottom;verticalAlign=top;align=center;html=1;fontSize=12;fontStyle=0;aspect=fixed;shape=mxgraph.aws4.resourceIcon;resIcon=mxgraph.aws4.athena;" vertex="1" parent="gPBveePWETglcoKWdT---46">
          <mxGeometry x="600" y="60" width="78" height="78" as="geometry" />
        </mxCell>
        <mxCell id="gPBveePWETglcoKWdT---6" value="" style="sketch=0;points=[[0,0,0],[0.25,0,0],[0.5,0,0],[0.75,0,0],[1,0,0],[0,1,0],[0.25,1,0],[0.5,1,0],[0.75,1,0],[1,1,0],[0,0.25,0],[0,0.5,0],[0,0.75,0],[1,0.25,0],[1,0.5,0],[1,0.75,0]];outlineConnect=0;fontColor=#232F3E;fillColor=#3947CE;strokeColor=#ffffff;dashed=0;verticalLabelPosition=bottom;verticalAlign=top;align=center;html=1;fontSize=12;fontStyle=0;aspect=fixed;shape=mxgraph.aws4.resourceIcon;resIcon=mxgraph.aws4.codecommit;" vertex="1" parent="gPBveePWETglcoKWdT---46">
          <mxGeometry x="830" y="158" width="78" height="78" as="geometry" />
        </mxCell>
        <mxCell id="gPBveePWETglcoKWdT---70" style="edgeStyle=orthogonalEdgeStyle;rounded=0;orthogonalLoop=1;jettySize=auto;html=1;entryX=0;entryY=0.5;entryDx=0;entryDy=0;" edge="1" parent="gPBveePWETglcoKWdT---46" source="gPBveePWETglcoKWdT---7" target="gPBveePWETglcoKWdT---16">
          <mxGeometry relative="1" as="geometry" />
        </mxCell>
        <mxCell id="gPBveePWETglcoKWdT---7" value="Run DBT" style="sketch=0;points=[[0,0,0],[0.25,0,0],[0.5,0,0],[0.75,0,0],[1,0,0],[0,1,0],[0.25,1,0],[0.5,1,0],[0.75,1,0],[1,1,0],[0,0.25,0],[0,0.5,0],[0,0.75,0],[1,0.25,0],[1,0.5,0],[1,0.75,0]];outlineConnect=0;fontColor=#232F3E;fillColor=#3947CE;strokeColor=#ffffff;dashed=0;verticalLabelPosition=bottom;verticalAlign=top;align=center;html=1;fontSize=12;fontStyle=0;aspect=fixed;shape=mxgraph.aws4.resourceIcon;resIcon=mxgraph.aws4.codebuild;" vertex="1" parent="gPBveePWETglcoKWdT---46">
          <mxGeometry x="830" y="345" width="78" height="78" as="geometry" />
        </mxCell>
        <mxCell id="gPBveePWETglcoKWdT---16" value="" style="shape=image;verticalLabelPosition=bottom;labelBackgroundColor=default;verticalAlign=top;aspect=fixed;imageAspect=0;image=data:image/png,iVBORw0KGgoAAAANSUhEUgAAAb4AAACiCAYAAAA+7qi9AAAACXBIWXMAABYlAAAWJQFJUiTwAAAAAXNSR0IArs4c6QAAAARnQU1BAACxjwv8YQUAAB7nSURBVHgB7Z3NchTZlcfPyZJKcsxEWPMELhYN6pYdLRaOFt5Q2tnQE4gnQCwcAYQjEE9A6QkQm4YILxBPgAi7sXdSb9yMZ4EcNm1ML0g/geXwuFuqou6Ze26WQBKS6itvZt7M/y9CqFRVqEqZWfd/zzfTmMivPm9SV+btrYv2R/udGkS8Y79vE8tX9vsGf/Fsm0CwuHMscoWMnl9pkJ5jtudXKLbn+it7nrdwjgEAocA0ArKyNEPt9m0SXrE/zQzwX2L7Sqt2cVwnEAxy49KyPW93yW1m+uLOMZn6Fj/ciAkAAArKUMI3guAdBQIYAD0r3gqeNGl49ByvU71+n9c2dggAAArGwMIntz63gietEQXv6MtukUxeh2VQLMYUvKNgkwMAKCR9hc9ZeXvtR/bmEqUN8zqZyVUIYL7IjSUbs+s8SknwDsPUsuK3SgAAUBBOFb5kQWxv0mAxnnHeRQuusex577q2x98nmghTry/i/AIAisCJwpeZ6L0HrrEMSdd1PQAqfqZ+FdY9ACBvjhW+HETvICqAV5Ee74ckjmfUdd2g7Ilpqn4elh8AIE8+EL6cRe89iP+litc43lDwFj/4cpEAACAnog/v6Qxat+UXkWUrwG/k1qW7BEZG43hy8/I9PZb5i54iTfd+AAAgJw5ZfL2C5UdUPBD/G4HM43jDINEiP/ztFgEAQMa8E77CuDhPZ5sECRL9cHE8Y+6RuBZyRQXxPgBALrx3dRbFxXk684n78/IjJ9TgEHpMrBtxk7pms+CipzSo3V4hAADIGGfx9ay9NxQWsX3n9/nB79ao4qTQSi4vdqzVdwZWHwAgSxKLL2ovU3g0rG7fk5uXNAFmmSqKi8vutV8kRehBiZ4yA6sPAJA1icVnxYOK7+Y8nYqVP6TcVzNPtvnBs/MEAAAZwXJraZ7EWgxlQdufmfrjsgpg0jtV47FSHkuJ6TwaFgAAsiIi6TSpTKjLj9ubZXR/uvKEvc6bUomeIsFbrQCAgIisi/AilY+GFcBHLv5XguxPdWtaIbdxPLMWYByvP8JNAgCAjJiwq06DykujV/4QZPyvl217j7om/ZFQRYLpUwIAgIywrk4per3X+CTtzzbl5i+CcBG6NmPaqo07Gnstt+glNAgAADJCyxliqgaNEMofXLZmuOUJo4I6PgBAZlhXJ8cld3ceJYn/3bp8sUjuz3fTE7qmSdUjJgAAyIiIWL6iKlKg6Q/v3ZoVzW5kquY1CADIBZYb1rXGZpOqTS7TH3IeClscxJzhh7+PCQAAMqDXueXyZmWtjYNk1P1Ffnlpnib4Ho65gsG0ZaAx35yZ7uwuGaGLVDNPX//5jxtUEPS9TXW+X7bX2hXu0vVXr57HBCrNhPtXeNXafk2qOon7c9m6HlvW+lslT/Cvn23LjUt/stuOJlUdlscEgmRf7ITomnS+nzfCLhlLTJS76/qg2El7tym9CWxMABycxwer7yje3Z9W/Fr2Nao8YT7mB8/OEAiGQ2JHMk89sTuIMF3/9uXzdcqY2dmFhonoGtsNpcjxm8rI0BlYfGDi3S1YfUfZ7/5yhaR+x4f7kx8+a1nxo+qKn9whUHiOWk/m3SP5208Hxc70xM6KHgCncujKhdV3Ctr8ul6/72N2XEUtvw1r7V0lUEgOiZ0M55L3bfENYtmdBCw+oEwc+km614mj0AbSZoMWlO+5+F/q7s+e5Tdjxe82VQUxsPYKxklxsSIwN/ez+Y6YK7DsQBp8cGXbBXitUgvwaGxb9+fVtN2flbG4mdbt5uE6gdwZx7I7ibQsvtkfLzSNoYt2kVqWlEp+YPEBZeKDe6br1rLpXKtQu6xRmPfS/NpZ3LUXJT/2MRnjLWMWDMbZjy8scSS3i2bZKbNzC8tWhO9a0WvozzDsQNpER+9wMSyW+wT6s9/8OqXen0kRd1RuS0joMYrVCwDLfFoWXtpYwWumZeEBcBzRsffW62uE/omDkursP37wmw0t6qZyEms8kwAApUNd0x/NXbhHAXCs8CWZizUkHwzH/uy/R2MLoLo8ics3sYAJLk4ASoLGh1Xszn6y8Ojs3Gf/sJb6JosEMfotOumBklse/khh9p9zBZbN3cy0nXUvVABAujixszFYFbt65/s3Knb27uXjGhkUmYlTH0VR+6g0erP/bmuRNj/43fB9C9XdvNe5XZpEF2NQswdAgJzUmk7Td0MlOu1BfvjbLfvXoZfi6DTsUXwyivvTuZulJMdeyxeQ0AJAMKjYnZv7bOXc3MJmvb37D6N5DJoMFZhldxJR32dMTa2UMt6UJSPP/osK0+F+DFC+AEAAHBU7Eeu1Kmjm77j0FT6UN6SIUMtlfw5Y/pBY3IHHWVG+AEBh0fZvNl53twpid5CJgZ7l4k3ta4TamjRIyh9uXb44UPE7y1cU7oWI8gUACsi5jz+7TREvVbX9W39XJ6G8wQsH3J+ysnSy39yYdQoVlC8AUEys6FXBsjuJgYRPQXmDJ5Lm1y9Ocn8mbsIgY6wbKF8AABSRgYXPoeUNwAe97i+XN4/P/jRPKTQwfQEAUFCGEj6XbCGERBdvSNO5P29evndYAKNtCgmULwAACsxwFp+i0xtQ3uAZWTnc/DqKKRxQvgAAKDRDCx/KGzLjXfNrEglno8G0CmsPAFBkhrf4LPyFS1GPCWRBg9hsUhjESGgBABSdkYTPISWfGweGB9cEACAARha+UnQVAenhElr0mgAAgGIzusWnuLlxABAhoQUAEApjCV8yNw7dOSqPIKEFABAO41l8ivbxRHlDlUE/TgBAUIwtfEkfT1h9lQUWPwAgMMa3+Ej7eH65hkSXSoJ+nACA4EhF+Bzo41k90I8TABAgg83jGwBNZZebv3hsb10jUH6E7iOhJT10IKj9NDbcD5J8N4Z3olqva89bil+9eh4TKAQ6rfw/Ou1Gx0gjiuT4sWJMcU2inX9P1uN4ewt5EAUiNeFzTE2t0F7niv3kzhAoM7FdltcIjISKnNRkSYQ/ZaKm2HXU6APmyBNZrPj1blvfzNlPFvTObft/YsPytDZJW6+2IYZZoEI33dnVwa0X3Tlr7zY6+oD9wZw0xFX0lBqqt3ftubuA81YgUhU+TXSRW5fu2xN+l0B50X6cD2DtDcPc3E/nO1K7Yhe/ZeP6sLK7f/jB1zJv/8+81cQl03ZiGNs716M6PcZimi4qdvXuXpON3LZC19zfg4w2rPzoebNCyOYxT/JG2c6bvSZblBKTHG28fPmH1KfTpGvxUdLHU25eUndng0D5YNpGQsvgzP54oSl2I9jpTbsebdE8lYb9atnFtHV2bmE9mqRVCOB4OMFr796mzvcrdoMy4+GckRNC4Xlp0z133thuXP7yfIvKQWqGT5tMbL+lLnzpJbccBD0by4sxVwn0RQXv3NzCpnVVbkpP9Lwj1pps0xu7kD6anbcxQzA05z7+7Ha98/0be7OlokdZoOfNXic4b9nhRfjQx7OkIKGlL2otnPvxZ08yFbyj7AvgJwsIOQyICo5uVIR5LTPBOwo2Lpnhx+JTXB9PdHQpETESWk5Hrbyp9u4LMbxExaBlY0kvsIieztnZhWumIy9y26gcJRHATb2eCHjBm/AlfTwxsLY0YMDsqah15ay8wsW2Zd4tohC/Y3FWcUTruVl5J9Nw7k9Y7V7wZ/Epro8nBtaWAHRoOYWP5i7cI40JFZcGxO9DeqLSomLTOjf32T0CqeJV+FwfTyS6hA86tJyIxmNYZIWKD8TvAJrEQsUXPYcIr+h1RiA1/Fp8hESX4HEDZuHiPA63GNl4DIWDEz9NwKEKo+LvklhCwl5nEL/08C58DvTxDBcMmD0W5yYLS/T2adQ7u5V1ndVq0YxY8acQsdcb3J7pkInwldrqY94u7d8m9BTW3oeE5CY7FifYfIUqSIfM7eIlIA2Ouj3PfXwhBNd6ocnG4kt4SuUitvHLRf7iy/P84MtFGwc7Q2VL5GFZJ3CIIN1kxyLzVEXCtNIPIUx35+Z+Vs3zlxLZCd/U5HqJ6vqs6JnFxJJNcJaRvY/KI347/OB3GwQOEaybDJQImemIIN43BpkJX29Se+o913KgJ3ofugBLJX5MEL0jaFwvZDcZKBMyn2Yz6KqRpatTCd3deaLo7VMi8fuKwDt6ZQAtAqAw8O2qZ+iOSrbCJ92QrYi+ordPScSvDNZ5akhbkE1XZVh2dJ4eM21pQpu7nfvnW2aqnKE7DqmPJToNFQS5eXknwEG1A4vePu5vvfHzReJIY0INCosd/uIZhK+H9kw0hjLvv+kGlwo/5QnaijqyfdwEdjfnL5po0FtZsovyRbhi00NFzp6Dx9SlrVev/ic+6Xl6DrpU03l71zLv9ym0bK2+O5jwPhyZCp+DVUQopIykoUVvn3DFjyF6B5CMByu7BZdpdZD5bC9f/q+eK/1y3pTZuYVlfb8QwLFYbX83vRbHg4nJgXOwPju70DBsXeJM1ygj6u1dLW9oUXFIrfa3TpGXtSh74RPzJ/vRDkX4Rha9fYIUP5aYgENje6ad2S4+jiK6Ps5A0lcvn6+TLsAQwBHg7cjI1eMs60Hp/d9lK4AtqdGjbCxAF+tbK4rV9/qb5y0qOFknt2gRSigm+diit0+AMb+/E3CYTjbWnlp51so4n9YUbhVANrSYfxwqDIT4/utvvj4/jugdRH/P314+1898Bp2PZGZqb2+ZwMBkL3wRhSF8KYnePu53vSVMLw8MzmLHzvRYF8lBXWuDoovvXn36fNJdCJzC6rfffO2lG0rP+vEvfpFUshPPqGQvfCaEHShv+WjVxb9+to1FKBzO/uTCkm9XIZNsvH75fJk8oe6v9uTUIq6740ksPb+uOf39+jrkEXWporRhcLIXviDwmHUqgVi8wG7SvO+iYzbsfeSTil/UFettEFx7h4k73021KAM69amWb7cz3J2Dk4ers0HFZ15uXUo9AUduLDXsv00CYSDit4RB+E5aMaV+6OtEzJireIBJjq6m7V4+Cd18cER+Z5PC3TkwsPhOQuhJIlQp/Tr9XdwOpc9j5V0mWrtnHZE+j8P6679+nWlDB5fwogXYQFl/+fIPmbp/NXHJ5/GHu3NwcsjqlAaFgROqNMTvgOg1KAx+SBXHGL9JLZHJItvvQ7Q+kIBae15jbifh+/hPv93F1IYByMHii35E4TC2+AUoehRYgwEvaBcU8oTu+rNycR4lKZeodqxPj3/W1t4+vq2+ruHMOwyFSB6uztAW1ZHFL0jRS2hQxRHxN6/OaBusXOFcrJ2ikPvxN+KtWX/E8imBvmQqfL3kjhB90EOLX8Cip8z4SO4JhY/ckE9/8b1aN984WxRVO86X9/FnYW+xXZFgumLlSrYWH3dDPikDi1/gopcg1c0+rbHxtznj45tNZ0ml3Z1FOP729f2VNsiM9gslcCoZC58JPd22r/iVQvQcUWVTo6Xrz80pEhVkzmG0RRWEJSpEOz4Rf/Mua7UImZ19yHgeXymsiBPFrzyip0hTVpYq+QEyHDXIF9bioAIgVe3HKgVx87K/YvY2Gbg7+5CZ8MmvPm9SeZImPhA/9/eVRvR6VLQThHVDecs8rnExWvbVCiLAWcO1YvzdkcfrIDIMi68P2Y0lMpLZfKqMUPF7Izcvxe6nrmlQ6XDuzjWqGMwyY11RXtidmC6G4CRzMStHTaJixDY9Hn/hIBMIMyUTi89ZRiLLVE4aVNr0f+vuvOEs9UohHjM6CzMp+201xxX9e7IeUxHwe/xDqpXOhWxcnVEn0wnWIEVYKnfuWHztmIOZRVlaCrPxALniXfhKbu1VAGv13fwFukGkQnFKCPJO6QcgT/xbfNy+RyBw+F5VMzwB8MHu9DQszxzxKnxy49Ky/QZrIXwatAd3NQCgHHgTvqSmjbBYlgZZqXIbMwDSZHp3Fx6UHPFn8XHnNqHZcbkQhtt6LIpTX4W5baDKeBG+XjPqFQIlQ5rW6lsmMCLFqa+qqsVRGMGf8GcUCPE/CZyKH4sv6jwhUE6Eyp/o4rGrRmEaCE9U0xtTBcHnis9bHITUhc8ltHicZQZyZ4ba7VJb82L89bEsSgNhw9Vsa2Umi9HH0mcjdBbUi/YjVeFzlgASWsqP0N1xptIXHWF/C0dRGgjz2zK22OsPv601qAD4bIQuE92YwKmka/G120hoqQrceUQlJRITky8KMihUOLpIFcRwMdYnn5PSJ81ETOBUUhO+pEMLtQhUhPL28ZSJKCZPMJtiCE5BBCBrinL8xWM46OXLP1Ry8sYwpGfxoR9n9WDzqIyJLlHH4+gaa/HlnVk4O7/QqGwcvgDH/6O5n817K22p6LipYUlF+HoJLcsEqkajjIkuSR9Lf5lxk53dfLsZdahJFabe/a5JORKZbpM8MeiEefGYABNCjWg6Fh8SWqqL0O1yJrpEW+QJ+6HLdTal5Pz6ecPdWr7HP4r8vf6gE+ZFvNX6hVAyMrbwya1LKnoNAlVlpoyNyFnMV+QJEWo6d2MO6Ovq61OFscLfzMsqcW5Oj27mIkyYL0rJyGmMJXy9hJZlAlVnqWyJLlxjrwuIaefzuTEdeGe0g069vZuLi57J3CZv8M6rvzzfGuSZPkt2pFtrUsEZz+JLEloaBEDJBtYmC4jXDhh3s7b6kqQWbFQT+HbWVp/v489EA3spfJbsMMkVKjgjCx8GzILDuIG15Up0EX5KHpEOZVoLCWvvINbq6+xm6qKXNm2SRwzLxqDP5chrd5fG7I8XmlRgRrf4uO31JIIQ4btlKm+IarROHtFY27mPL2SyWZidW1iGtXcEezyyOv5nP1m4K569Y53J6YGFr0uRV1e+vbYLvckaSfh6A2YbFAR8x/4TE8iCUvXxzMDdaY1Kued7d6wuNkOCkVLHIEx351xdnT/Ozi5oFmeL/LIeb28NfK12JusxeUQ3dSr2VFCGFr7g+nGybPGDZ2fs7m5Vg78E/FKyPp5C0WPyjDH85OzHF7zU9rksTnWxSTWbUvdHZjoim77Ez4le5Ndz4KiZodzyKpLs3yBoFVX8hrf4wuvH6S5ofvisRdI9by907wtZ5SlRH89aNHjcZHTEbiblSdqLhIqp6cgLQQJaH1T8zIu0j/9HcxfuZSJ6VsBe//mPQ1+n1irzVrJzABW/N3mV75wED/Nkt5Pn9hsKCab7/MWzQ+43uXVp3m7ldWZgg4AfJFrkh7/dohJwbm5hM8Patziq0+Krbe0eMxqaregSN3KK6Vn34fVvXz5fpxE5+/HCuv3c5lNkzrIdTfLVcY6/uq41xpXVNTPq8da4r5HsEqyYacsQPa5N0tZJx1ev3em3u/Pay1SEP1VLdhRR78fEUM/W8gWhsBD6oCmtFUIN7J5xscrEbdsgkC5s9AN1hkqA/cCuZih8DdOmN1Zs3SIxzIKmC25X+Ap3vl+Ga3NEhOfd8f/kwoZheaoJI4PEztyC3dld0q44xmTaICAedZOxa/+2ens3M+HTz5C1tJr2+NLZuc927OY41vtZPR7k4t0z1N6dMZTc6+4zkRerdGCLT371eZO6JsxMzqn6f/HaxrEXr9z4ubViuWUPRaXbOHnBCobdZLSoBGRs9R0i2SnzdkTm73wgTi12wTAU/SgSagibZlHELmiL7xj0+NtzH9ubx/XB/JF9hg2n5NP0e9xjned1PQjj/n0nMbjF1zXhxm329pbtv2vHPcQPfx/bb8tWAFvEkQp7g0A6aB/PlaW1kzYdIZGx1XeIZKcsTdG98aFH2N3j7pOhohZgCPqf99zcYPHYomDkqb24m1QxBkpuCat84Tiivp0EVAB72Z/XCeUPaTFDe+UYV6WlDVZ47hMABcHudVZpTPamfrDuu2SniPQVviShJfSOD3a3PGBhNT98tm4dy4tWALHIpYKsuGSiEtCpT7UYmyJQDNbTcAEm8cvqbej6W3xRW33tDQqdIQqrnfX38NmKFcAzVvQzSGcvOcKlKJ52tU+R8wgAkCdxZMa39vZp16fXqmb1nSp8vekLLSoDSbxpqOC/E8Avnl2F+3NcrMVdkukNve73qS06ORJTBdFEFQocK3qLybDkdKii1Xe6xReVIz7TY+R2Wur+fN/9BYwEB5wcdYTX3zxvWU9A0I0Qooparsxhf4ZZ+E6aorePWn1VcuOfKHyufKFs0xdGsPoOknR/se5PdH8ZhYaN9bWoJLQnp1fsKuq10a9HVged21Y29O9W8aAwWf3bX79eIw+E5MbXEozjvj6a++zewcePjp3S7jF6/9lPLjw52eILuXzhZMbOMkyyP3+3DPfnCIy58SgSulC0J6cWwxM/3nYWa4VR8WDKohVdqqz6Pm+hbAq0prJXV5mUmgjv6M/2ve/s36dfU0kZ2zu6bV5JSlNk/ljhC7984TRkJY1402H3J5pfD0hpyhuUAMUvjoxcJUB79R9cD+i8rWa1WelZlIV2B9tjcV2/rGvWed7YyJ3efYffd3R4IG6kA3I5SeL5QPiCm74wCjbelJblgebXw6Ibj/JMb1Dxe/3y6/MB1PjFaSdFhEwQmxa7SIuh61lb6Pp64desyoZad7OzSXNs1z/VGnNMyfn+0OILb/rCKDRor52aK/e9+zNaJLg/+1Oi6Q37fPvN15o4VcidsmYytr+bPg/RO0zBNy1x1OXz375Kv13XIBT5eh4M3nGt/qKkUbsRumZF76ndSLi2c4eEr1TlC/1ZkluXUrVsdRqBc39i+G0fylPecBDdKVur6kyRsuN0Uf/by+eLcbwFd/wJ6CKfxLaKUcum56wIGxV3PbPmMgRa46ft2IjVkLPGs4371brr+w8dtvjKVb7QHyvyaYufwg++XHPdX+D+PBmWUl5rulj97ZvnOpUi590yb0cRLfZ27qAPGtuKDJ+3a0Jun1m1UPbPWVE2Kq9ePl/P+7iMStKOzbi5iNpN9eB4o3fCl1h7JStfGARf4vfO/anlD7D+PsRafbdcElUp2bf+clgwYu1o//qbr89XtWRhVHTT8vqvz5dVfLIsdN8XPLXMi3jO3h0Xe12FVOvnSjRsDJdFdPO3dfCx9xYft0vRVmokPImfgubXpyDlTqJ6t2DsCyD7cxntL55WcM/4GONSJVR8VIS8njf7O23MaaPIgncUtf7Um6HvOZMNnR6jyIx17PcbFtj3fOj9urFEvVl7S1RlVPxuXp6xbkovdSxa/iA3fr6F2X+H0KL2Zf7i2TqVmF6sZllv69RrEblirbLx5uclC+e2vXCf7v37B+sjusbWyQM1HnODN8Eb1JWYcubgeTv7kwtL9FaW7EJ6UUZM/lNrSdTyqPHT9r+mt0KNu/ZEemt2dqFFNWrq4N1xjstB9o+RtS6/2v33DzZOO0Y16m4bqq3uTk8ffc6q/Wy57M3dientenv3fcMGe23xW9p2Q7zsgr+prieqPLxlL+47/OtnXlOck+G3tUc45o5taxGfpwoyN/fT+S7V5ruG56NIPhXiGeuW+UAMhXmHxcRGor9HkYnVfbP7f9PbSFjJh0ajOTP9n7vzdgNjv9zm5UcnPPXvkW4C7FcVztfB42JM1GCWH1pBbBx6kpBO+4ndTVeIzv/Ua1qiKG7/ayqzzQAnY4fab6jaxCTRdc3KpAyRm/9treyuupgbVGUkWsz62AMAqktE3Kmwi5N3tPOKxuDyWHj5wW820P2FtN18td3sAIBM0eSWvtPJy4l1a0r3vOu8kvc7qXr3F6nqNQgAyAOWm5fUzdmg6pCLW3NQ3LRyoSdUMfentXyZAAAgAzSrs0GVQN2acr8IFt5p8BcuseaMaxSe9ExtEAAAgNRQV2dMZYdpvShuzUHR8gfX/aUaw29DnWsHAAgQK3zyFZUWjeNFi9aKuq6F5BQYrvi9CsNvGcIHAMgOK3xRCRcdzZCUO/zgy1KkyVdg+kOJN18AgKIRWRfgBpUJofs0NXnGCsUalYx30x/K1v7MmC0CAICMKFHnlmy6rhQFN0h3t70S/tBg3lLLnAAAICP2m1Q/pXCJXRxP3ZoVET2F1zZ2ShH/Y4xuAgBkS2LxqfWw13ljb43eNDdzkvIEmq6vqQhQxQm0/2cyuQIAADLkXdGw3LrUCmZMjJYn1Ot3IHgfElT9n873KvlkBgBA8XgvfM7qa7+gQi+YWp7Aq2ho3J8ABBDWHgAgFw61iZIbnzeJzSYVDx3tsQrrYDic+5MiTYC5TUXDxiZDrK0EAITPB/0RraWwVpyFEnG8NEjifwUagKsTMQLqogMAKBfHNgYuSHnDhrUK7sAqSI9CJMBA9AAAOXO88Gm8r93ZtNbWPGUO4ni+yS3+B9EDABSAE0fB5JDsgjhexmQqgBA9AEBBOHUGmnONRbUnfi0/xPHypJcAs+y1AwxEDwBQIPoO/+y1xmp5SXhBPV5h8JQAU+ihvwCAajLw1Ot03WKI4xWV1ARQm4VP11vY1AAAisbAwqeMvyhC8EJBbl2at+fq3vAZoDjHAIBiM5Tw7eME0NSWqCbq/mz0/x9YDEMlaWrQXT51s8O8TUaeIk4LAAiBkYTvIPJLaxlMcNPeumgXwEaSCMM79jfHbrq7iTYgeOGTWPuT81YEk0Qn0WG/UUxTtS2IHQAgJP4fMjcNeKT+7BIAAAAASUVORK5CYII=;" vertex="1" parent="gPBveePWETglcoKWdT---46">
          <mxGeometry x="1000" y="361.63" width="123.16" height="44.74" as="geometry" />
        </mxCell>
        <mxCell id="gPBveePWETglcoKWdT---19" value="Crawler RAW" style="sketch=0;outlineConnect=0;fontColor=#232F3E;gradientColor=none;fillColor=#8C4FFF;strokeColor=none;dashed=0;verticalLabelPosition=bottom;verticalAlign=top;align=center;html=1;fontSize=12;fontStyle=0;aspect=fixed;pointerEvents=1;shape=mxgraph.aws4.glue_crawlers;" vertex="1" parent="gPBveePWETglcoKWdT---46">
          <mxGeometry x="600" y="195" width="78" height="78" as="geometry" />
        </mxCell>
        <mxCell id="gPBveePWETglcoKWdT---57" style="edgeStyle=orthogonalEdgeStyle;rounded=0;orthogonalLoop=1;jettySize=auto;html=1;exitX=1;exitY=0.5;exitDx=0;exitDy=0;exitPerimeter=0;" edge="1" parent="gPBveePWETglcoKWdT---46" source="gPBveePWETglcoKWdT---4" target="gPBveePWETglcoKWdT---19">
          <mxGeometry relative="1" as="geometry" />
        </mxCell>
        <mxCell id="gPBveePWETglcoKWdT---4" value="RAW" style="sketch=0;points=[[0,0,0],[0.25,0,0],[0.5,0,0],[0.75,0,0],[1,0,0],[0,1,0],[0.25,1,0],[0.5,1,0],[0.75,1,0],[1,1,0],[0,0.25,0],[0,0.5,0],[0,0.75,0],[1,0.25,0],[1,0.5,0],[1,0.75,0]];outlineConnect=0;fontColor=#232F3E;fillColor=#7AA116;strokeColor=#ffffff;dashed=0;verticalLabelPosition=bottom;verticalAlign=top;align=center;html=1;fontSize=12;fontStyle=0;aspect=fixed;shape=mxgraph.aws4.resourceIcon;resIcon=mxgraph.aws4.s3;" vertex="1" parent="gPBveePWETglcoKWdT---46">
          <mxGeometry x="460" y="195" width="78" height="78" as="geometry" />
        </mxCell>
        <mxCell id="gPBveePWETglcoKWdT---58" style="edgeStyle=orthogonalEdgeStyle;rounded=0;orthogonalLoop=1;jettySize=auto;html=1;entryX=0.5;entryY=1;entryDx=0;entryDy=0;entryPerimeter=0;" edge="1" parent="gPBveePWETglcoKWdT---46" source="gPBveePWETglcoKWdT---19" target="gPBveePWETglcoKWdT---5">
          <mxGeometry relative="1" as="geometry" />
        </mxCell>
        <mxCell id="gPBveePWETglcoKWdT---34" value="" style="sketch=0;points=[[0,0,0],[0.25,0,0],[0.5,0,0],[0.75,0,0],[1,0,0],[0,1,0],[0.25,1,0],[0.5,1,0],[0.75,1,0],[1,1,0],[0,0.25,0],[0,0.5,0],[0,0.75,0],[1,0.25,0],[1,0.5,0],[1,0.75,0]];outlineConnect=0;fontColor=#232F3E;fillColor=#8C4FFF;strokeColor=#ffffff;dashed=0;verticalLabelPosition=bottom;verticalAlign=top;align=center;html=1;fontSize=12;fontStyle=0;aspect=fixed;shape=mxgraph.aws4.resourceIcon;resIcon=mxgraph.aws4.athena;" vertex="1" parent="gPBveePWETglcoKWdT---46">
          <mxGeometry x="1022.5800000000002" y="210" width="78" height="78" as="geometry" />
        </mxCell>
        <mxCell id="gPBveePWETglcoKWdT---73" style="edgeStyle=orthogonalEdgeStyle;rounded=0;orthogonalLoop=1;jettySize=auto;html=1;entryX=0;entryY=0.25;entryDx=0;entryDy=0;entryPerimeter=0;" edge="1" parent="gPBveePWETglcoKWdT---46" source="gPBveePWETglcoKWdT---5" target="gPBveePWETglcoKWdT---7">
          <mxGeometry relative="1" as="geometry" />
        </mxCell>
        <mxCell id="gPBveePWETglcoKWdT---75" style="edgeStyle=orthogonalEdgeStyle;rounded=0;orthogonalLoop=1;jettySize=auto;html=1;entryX=0.5;entryY=1;entryDx=0;entryDy=0;entryPerimeter=0;" edge="1" parent="gPBveePWETglcoKWdT---46" source="gPBveePWETglcoKWdT---16" target="gPBveePWETglcoKWdT---34">
          <mxGeometry relative="1" as="geometry" />
        </mxCell>
        <mxCell id="gPBveePWETglcoKWdT---76" value="" style="sketch=0;points=[[0,0,0],[0.25,0,0],[0.5,0,0],[0.75,0,0],[1,0,0],[0,1,0],[0.25,1,0],[0.5,1,0],[0.75,1,0],[1,1,0],[0,0.25,0],[0,0.5,0],[0,0.75,0],[1,0.25,0],[1,0.5,0],[1,0.75,0]];outlineConnect=0;fontColor=#232F3E;fillColor=#7AA116;strokeColor=#ffffff;dashed=0;verticalLabelPosition=bottom;verticalAlign=top;align=center;html=1;fontSize=12;fontStyle=0;aspect=fixed;shape=mxgraph.aws4.resourceIcon;resIcon=mxgraph.aws4.s3;" vertex="1" parent="gPBveePWETglcoKWdT---46">
          <mxGeometry x="1022.58" y="40" width="78" height="78" as="geometry" />
        </mxCell>
        <mxCell id="gPBveePWETglcoKWdT---79" style="edgeStyle=orthogonalEdgeStyle;rounded=0;orthogonalLoop=1;jettySize=auto;html=1;entryX=0.5;entryY=1;entryDx=0;entryDy=0;entryPerimeter=0;" edge="1" parent="gPBveePWETglcoKWdT---46" source="gPBveePWETglcoKWdT---34" target="gPBveePWETglcoKWdT---76">
          <mxGeometry relative="1" as="geometry" />
        </mxCell>
        <mxCell id="gPBveePWETglcoKWdT---102" value="Query DBT" style="edgeLabel;html=1;align=center;verticalAlign=middle;resizable=0;points=[];" vertex="1" connectable="0" parent="gPBveePWETglcoKWdT---79">
          <mxGeometry x="-0.7143" relative="1" as="geometry">
            <mxPoint as="offset" />
          </mxGeometry>
        </mxCell>
        <mxCell id="gPBveePWETglcoKWdT---80" style="edgeStyle=orthogonalEdgeStyle;rounded=0;orthogonalLoop=1;jettySize=auto;html=1;entryX=0.5;entryY=0;entryDx=0;entryDy=0;entryPerimeter=0;" edge="1" parent="gPBveePWETglcoKWdT---46" source="gPBveePWETglcoKWdT---6" target="gPBveePWETglcoKWdT---7">
          <mxGeometry relative="1" as="geometry" />
        </mxCell>
        <mxCell id="gPBveePWETglcoKWdT---100" value="DBT Repository" style="edgeLabel;html=1;align=center;verticalAlign=middle;resizable=0;points=[];" vertex="1" connectable="0" parent="gPBveePWETglcoKWdT---80">
          <mxGeometry x="-0.3945" y="1" relative="1" as="geometry">
            <mxPoint x="-1" y="-20" as="offset" />
          </mxGeometry>
        </mxCell>
        <mxCell id="gPBveePWETglcoKWdT---95" value="Schedule&amp;nbsp;02:00AM" style="text;html=1;align=center;verticalAlign=middle;resizable=0;points=[];autosize=1;strokeColor=none;fillColor=none;" vertex="1" parent="gPBveePWETglcoKWdT---46">
          <mxGeometry x="140" y="170" width="120" height="30" as="geometry" />
        </mxCell>
        <mxCell id="gPBveePWETglcoKWdT---96" value="RAW/REF DataBase" style="text;html=1;align=center;verticalAlign=middle;resizable=0;points=[];autosize=1;strokeColor=none;fillColor=none;" vertex="1" parent="gPBveePWETglcoKWdT---46">
          <mxGeometry x="574" y="30" width="130" height="30" as="geometry" />
        </mxCell>
        <mxCell id="gPBveePWETglcoKWdT---101" value="REF" style="text;html=1;align=center;verticalAlign=middle;resizable=0;points=[];autosize=1;strokeColor=none;fillColor=none;" vertex="1" parent="gPBveePWETglcoKWdT---46">
          <mxGeometry x="1036.58" y="10" width="50" height="30" as="geometry" />
        </mxCell>
        <mxCell id="gPBveePWETglcoKWdT---105" value="Dashboards" style="sketch=0;points=[[0,0,0],[0.25,0,0],[0.5,0,0],[0.75,0,0],[1,0,0],[0,1,0],[0.25,1,0],[0.5,1,0],[0.75,1,0],[1,1,0],[0,0.25,0],[0,0.5,0],[0,0.75,0],[1,0.25,0],[1,0.5,0],[1,0.75,0]];outlineConnect=0;fontColor=#232F3E;fillColor=#8C4FFF;strokeColor=#ffffff;dashed=0;verticalLabelPosition=bottom;verticalAlign=top;align=center;html=1;fontSize=12;fontStyle=0;aspect=fixed;shape=mxgraph.aws4.resourceIcon;resIcon=mxgraph.aws4.analytics;" vertex="1" parent="gPBveePWETglcoKWdT---46">
          <mxGeometry x="1200" y="132" width="78" height="78" as="geometry" />
        </mxCell>
        <mxCell id="gPBveePWETglcoKWdT---106" value="Quicksight" style="sketch=0;points=[[0,0,0],[0.25,0,0],[0.5,0,0],[0.75,0,0],[1,0,0],[0,1,0],[0.25,1,0],[0.5,1,0],[0.75,1,0],[1,1,0],[0,0.25,0],[0,0.5,0],[0,0.75,0],[1,0.25,0],[1,0.5,0],[1,0.75,0]];outlineConnect=0;fontColor=#232F3E;fillColor=#8C4FFF;strokeColor=#ffffff;dashed=0;verticalLabelPosition=bottom;verticalAlign=top;align=center;html=1;fontSize=12;fontStyle=0;aspect=fixed;shape=mxgraph.aws4.resourceIcon;resIcon=mxgraph.aws4.quicksight;" vertex="1" parent="gPBveePWETglcoKWdT---46">
          <mxGeometry x="1200" y="288" width="78" height="78" as="geometry" />
        </mxCell>
        <mxCell id="gPBveePWETglcoKWdT---107" style="edgeStyle=orthogonalEdgeStyle;rounded=0;orthogonalLoop=1;jettySize=auto;html=1;exitX=1;exitY=0.25;exitDx=0;exitDy=0;exitPerimeter=0;entryX=0;entryY=0.5;entryDx=0;entryDy=0;entryPerimeter=0;" edge="1" parent="gPBveePWETglcoKWdT---46" source="gPBveePWETglcoKWdT---34" target="gPBveePWETglcoKWdT---105">
          <mxGeometry relative="1" as="geometry" />
        </mxCell>
        <mxCell id="gPBveePWETglcoKWdT---108" style="edgeStyle=orthogonalEdgeStyle;rounded=0;orthogonalLoop=1;jettySize=auto;html=1;exitX=1;exitY=0.75;exitDx=0;exitDy=0;exitPerimeter=0;entryX=0;entryY=0.5;entryDx=0;entryDy=0;entryPerimeter=0;" edge="1" parent="gPBveePWETglcoKWdT---46" source="gPBveePWETglcoKWdT---34" target="gPBveePWETglcoKWdT---106">
          <mxGeometry relative="1" as="geometry" />
        </mxCell>
        <mxCell id="gPBveePWETglcoKWdT---112" style="edgeStyle=orthogonalEdgeStyle;rounded=0;orthogonalLoop=1;jettySize=auto;html=1;entryX=1;entryY=0.25;entryDx=0;entryDy=0;entryPerimeter=0;" edge="1" parent="gPBveePWETglcoKWdT---46" source="gPBveePWETglcoKWdT---76" target="gPBveePWETglcoKWdT---5">
          <mxGeometry relative="1" as="geometry" />
        </mxCell>
        <mxCell id="gPBveePWETglcoKWdT---49" value="Financial Modeling Prep API" style="fillColor=none;strokeColor=#5A6C86;dashed=1;verticalAlign=top;fontStyle=0;fontColor=#5A6C86;whiteSpace=wrap;html=1;" vertex="1" parent="1">
          <mxGeometry x="-244" y="194" width="166" height="170" as="geometry" />
        </mxCell>
        <mxCell id="gPBveePWETglcoKWdT---51" style="edgeStyle=orthogonalEdgeStyle;rounded=0;orthogonalLoop=1;jettySize=auto;html=1;exitX=1;exitY=0.5;exitDx=0;exitDy=0;exitPerimeter=0;entryX=0.25;entryY=0;entryDx=0;entryDy=0;entryPerimeter=0;" edge="1" parent="1" source="gPBveePWETglcoKWdT---1" target="gPBveePWETglcoKWdT---2">
          <mxGeometry relative="1" as="geometry" />
        </mxCell>
        <mxCell id="gPBveePWETglcoKWdT---56" style="edgeStyle=orthogonalEdgeStyle;rounded=0;orthogonalLoop=1;jettySize=auto;html=1;exitX=1;exitY=0.5;exitDx=0;exitDy=0;exitPerimeter=0;entryX=0;entryY=0.5;entryDx=0;entryDy=0;entryPerimeter=0;" edge="1" parent="1" source="gPBveePWETglcoKWdT---2" target="gPBveePWETglcoKWdT---4">
          <mxGeometry relative="1" as="geometry" />
        </mxCell>
        <mxCell id="gPBveePWETglcoKWdT---99" value="Incremental ETL" style="edgeLabel;html=1;align=center;verticalAlign=middle;resizable=0;points=[];" vertex="1" connectable="0" parent="gPBveePWETglcoKWdT---56">
          <mxGeometry x="-0.4181" y="-5" relative="1" as="geometry">
            <mxPoint x="-63" y="41" as="offset" />
          </mxGeometry>
        </mxCell>
        <mxCell id="gPBveePWETglcoKWdT---72" style="edgeStyle=orthogonalEdgeStyle;rounded=0;orthogonalLoop=1;jettySize=auto;html=1;exitX=1;exitY=0.5;exitDx=0;exitDy=0;exitPerimeter=0;entryX=0;entryY=0.5;entryDx=0;entryDy=0;entryPerimeter=0;" edge="1" parent="1" source="gPBveePWETglcoKWdT---3" target="gPBveePWETglcoKWdT---7">
          <mxGeometry relative="1" as="geometry" />
        </mxCell>
        <mxCell id="gPBveePWETglcoKWdT---86" style="edgeStyle=orthogonalEdgeStyle;rounded=0;orthogonalLoop=1;jettySize=auto;html=1;" edge="1" parent="1" source="gPBveePWETglcoKWdT---83" target="gPBveePWETglcoKWdT---85">
          <mxGeometry relative="1" as="geometry" />
        </mxCell>
        <mxCell id="gPBveePWETglcoKWdT---83" value="Developers" style="sketch=0;outlineConnect=0;fontColor=#232F3E;gradientColor=none;fillColor=#232F3D;strokeColor=none;dashed=0;verticalLabelPosition=bottom;verticalAlign=top;align=center;html=1;fontSize=12;fontStyle=0;aspect=fixed;pointerEvents=1;shape=mxgraph.aws4.users;" vertex="1" parent="1">
          <mxGeometry x="950" y="64" width="78" height="78" as="geometry" />
        </mxCell>
        <mxCell id="gPBveePWETglcoKWdT---84" value="" style="sketch=0;outlineConnect=0;fontColor=#232F3E;gradientColor=none;fillColor=#232F3D;strokeColor=none;dashed=0;verticalLabelPosition=bottom;verticalAlign=top;align=center;html=1;fontSize=12;fontStyle=0;aspect=fixed;pointerEvents=1;shape=mxgraph.aws4.source_code;" vertex="1" parent="1">
          <mxGeometry x="790" y="70" width="21.92" height="30" as="geometry" />
        </mxCell>
        <mxCell id="gPBveePWETglcoKWdT---85" value="" style="sketch=0;outlineConnect=0;gradientColor=none;fontColor=#545B64;strokeColor=none;fillColor=#879196;dashed=0;verticalLabelPosition=bottom;verticalAlign=top;align=center;html=1;fontSize=12;fontStyle=0;aspect=fixed;shape=mxgraph.aws4.illustration_desktop;pointerEvents=1" vertex="1" parent="1">
          <mxGeometry x="775.05" y="62" width="87.91" height="80" as="geometry" />
        </mxCell>
        <mxCell id="gPBveePWETglcoKWdT---113" value="" style="sketch=0;outlineConnect=0;fontColor=#232F3E;gradientColor=none;fillColor=#232F3D;strokeColor=none;dashed=0;verticalLabelPosition=bottom;verticalAlign=top;align=center;html=1;fontSize=12;fontStyle=0;aspect=fixed;pointerEvents=1;shape=mxgraph.aws4.git_repository;" vertex="1" parent="1">
          <mxGeometry x="820" y="80" width="23.08" height="30" as="geometry" />
        </mxCell>
        <mxCell id="gPBveePWETglcoKWdT---114" style="edgeStyle=orthogonalEdgeStyle;rounded=0;orthogonalLoop=1;jettySize=auto;html=1;entryX=0.5;entryY=0;entryDx=0;entryDy=0;entryPerimeter=0;" edge="1" parent="1" source="gPBveePWETglcoKWdT---85" target="gPBveePWETglcoKWdT---6">
          <mxGeometry relative="1" as="geometry" />
        </mxCell>
      </root>
    </mxGraphModel>
  </diagram>
</mxfile>
